<svg width="60" height="70" viewBox="0 0 60 70" fill="none" xmlns="http://www.w3.org/2000/svg">
<path fill-rule="evenodd" clip-rule="evenodd" d="M56.6667 48.6111C52.6667 48.6111 48.6667 47.8333 44.6667 46.2778C43.6667 45.8889 42.3333 46.2778 41.3333 47.0556L34 55.6111C24.6667 50.1667 17 40.8333 12 29.9444L19.3333 21.3889C20.3333 20.2222 20.6667 18.6667 20 17.5C19 13.2222 18.3333 8.55556 18.3333 3.88889C18.3333 1.55556 17 0 15 0H3.33333C1.33333 0 0 1.55556 0 3.88889C0 40.4444 25.3333 70 56.6667 70C58.6667 70 60 68.4444 60 66.1111V52.5C60 50.1667 58.6667 48.6111 56.6667 48.6111ZM53.3333 35H60C60 15.5556 46.6667 0 30 0V7.77778C43 7.77778 53.3333 19.8333 53.3333 35ZM40 35H46.6667C46.6667 24.1111 39.3333 15.5556 30 15.5556V23.3333C35.6667 23.3333 40 28.3889 40 35Z" fill="#00252E"/>
</svg>
