<svg width="342" height="56" viewBox="0 0 342 56" fill="none" xmlns="http://www.w3.org/2000/svg">
<path d="M39.8531 1.26197C28.845 1.25623 17.3595 3.75469 5.76714 6.99551C4.29511 7.29418 2.85871 8.26484 2.09919 9.46525C1.40094 10.5967 1.14729 11.7325 0.92926 12.9229C-0.19649 19.281 -0.0596899 25.5243 0.17401 32.4425C0.22531 34.0263 0.45901 35.903 1.19289 37.0445C1.95954 38.1976 3.27339 38.9299 4.84231 39.1697C6.84672 39.4659 8.85742 39.7173 10.8729 39.9235L10.4283 52.4129C10.3599 53.4066 10.8416 54.2322 11.4401 54.7075C11.9759 55.1182 12.5729 55.3005 13.1857 55.3465C14.4112 55.4398 15.849 54.9114 16.5629 53.5416C19.6908 47.4763 21.653 44.7984 25.5647 40.7693C35.7648 41.022 44.6696 40.4505 54.7515 39.6995C58.3154 39.6062 60.7622 36.6698 61.4091 34.3249C63.3428 28.2482 63.6435 20.7471 63.8487 13.1641C63.9356 10.1588 62.9011 7.20802 61.07 5.64864C59.3286 4.22567 57.2196 3.71018 55.2873 3.18177C49.9193 1.95695 44.5499 1.29931 39.8531 1.26197ZM54.5164 6.01479C56.4515 6.54464 58.1573 7.05438 59.2331 7.93459C61.0286 9.85725 60.9688 11.1366 60.9431 13.2115C60.7408 20.5662 60.3902 27.704 58.7429 33.1131C58.0333 35.1305 56.7964 36.5664 54.4594 36.7832C44.188 37.5485 35.276 38.1401 24.9519 37.8443C24.7509 37.8379 24.5507 37.873 24.3637 37.9476C24.1767 38.0222 24.0068 38.1346 23.8646 38.278C19.5269 42.6919 17.3082 45.759 14.0022 52.1717C13.9253 52.3182 13.7585 52.4072 13.5533 52.423C13.4151 52.4158 13.3595 52.3081 13.351 52.2105L13.7984 38.6671C13.8255 37.9362 13.227 37.2384 12.506 37.1594C10.095 36.9274 7.69067 36.6305 5.29546 36.2692C4.26091 36.1098 3.87901 35.824 3.59544 35.399C3.10239 34.2144 3.11379 33.4821 3.07531 32.3434C2.84446 25.487 2.73046 19.495 3.77499 13.5332C3.87189 12.6515 4.19964 11.7498 4.54734 10.9959C5.12304 10.0884 6.00511 9.9549 6.89004 9.70792C18.2273 6.55326 29.3195 4.19408 39.7619 4.1869C44.8805 4.37356 50.2556 4.89049 54.5164 6.01479ZM15.3588 17.6312C13.797 19.5165 13.9523 22.0767 15.1593 23.7912C15.7892 24.6886 16.7724 25.4109 17.9694 25.5746C19.5241 25.7038 20.5102 25.0692 21.5747 24.3397C23.5027 22.6511 23.6979 19.7046 22.2316 17.5766C21.4849 16.4925 20.2907 15.8421 19.0709 15.7961C17.4008 15.8134 16.2665 16.5643 15.3588 17.6298V17.6312ZM32.2536 16.0919C30.6975 16.1422 29.4392 17.2277 28.6712 18.3994C27.7919 19.7391 27.2789 21.4162 27.99 23.0603C29.358 26.2236 34.0847 26.1848 35.97 22.9699C36.8393 21.488 36.617 19.8037 35.97 18.5818C35.3259 17.3613 34.3512 16.3662 32.9333 16.1379C32.7087 16.1007 32.4811 16.0853 32.2536 16.0919ZM45.9692 16.3892C45.4847 16.3777 44.986 16.4236 44.5186 16.5485C42.649 17.0511 41.0573 18.9953 41.2981 21.4837C41.4206 22.7358 41.9921 23.9563 43.0223 24.7978C44.0526 25.6378 45.5489 26.014 47.1263 25.688C48.9389 25.3147 50.0618 23.8429 50.4366 22.4214C50.8114 20.9998 50.7173 19.551 49.8467 18.3764C49.3936 17.7694 48.8089 17.2748 48.1371 16.9304C47.4653 16.5859 46.7243 16.4008 45.9707 16.3892H45.9692ZM18.9441 18.7196C19.2932 18.7225 19.5683 18.8345 19.8518 19.2452C20.486 20.167 20.3093 21.5641 19.6694 22.1241C19.0325 22.6841 18.6349 22.7329 18.3556 22.6956C18.0763 22.6568 17.7927 22.463 17.5391 22.1012C17.0546 21.4119 16.9121 20.2977 17.549 19.5022C17.8882 19.0484 18.5109 18.7656 18.9455 18.7196H18.9441ZM32.4574 19.0398C32.5115 19.0484 33.1186 19.4031 33.4093 19.9531C33.7 20.503 33.7541 21.0142 33.4777 21.4837C32.6555 22.8852 30.907 22.5061 30.6419 21.8958C30.5422 21.6632 30.6177 20.7284 31.0979 20.0004C31.5753 19.2696 32.1767 18.9953 32.4574 19.0384V19.0398ZM47.5111 20.1139C47.5994 20.2331 47.8146 21.0328 47.6479 21.6675C47.4797 22.3022 47.2061 22.6942 46.5364 22.832C45.6785 23.0101 45.1969 22.832 44.8364 22.5348C44.4744 22.2404 44.2307 21.7422 44.178 21.2095C44.0498 19.8884 44.52 19.5826 45.2667 19.3816C46.136 19.1662 47.1192 19.5424 47.5111 20.1139Z" fill="white"/>
<path d="M82.0943 7.17383C82.1171 6.80049 82.2525 6.46449 82.5033 6.16726C82.6253 6.02155 82.7787 5.90574 82.9518 5.82862C83.1249 5.75149 83.3131 5.71508 83.5022 5.72213H93.2293C93.557 5.72213 93.8947 5.85998 94.2439 6.13424C94.4075 6.25259 94.5405 6.40877 94.6317 6.58967C94.723 6.77058 94.7698 6.9709 94.7683 7.17383V22.8151H111.043V7.17383C111.043 6.77752 111.18 6.43721 111.452 6.15147C111.726 5.86429 112.079 5.7207 112.517 5.7207H122.113C122.549 5.7207 122.931 5.83126 123.258 6.05095C123.586 6.27208 123.75 6.62388 123.75 7.10777V53.2719C123.75 53.7558 123.607 54.1191 123.322 54.3603C123.04 54.603 122.668 54.7236 122.211 54.7236H112.517C112.081 54.7236 111.726 54.603 111.452 54.3603C111.18 54.1191 111.043 53.7572 111.043 53.2719V34.5291H94.7683V53.2719C94.7683 53.7342 94.6201 54.0903 94.3265 54.3445C94.0315 54.5972 93.6325 54.7236 93.1295 54.7236H83.5022C82.5859 54.7236 82.1171 54.2942 82.0943 53.437V7.17383ZM171.691 54.1636C171.408 54.4048 171.107 54.5584 170.791 54.6245C170.495 54.6887 170.194 54.7224 169.891 54.725H164.947C164.553 54.725 164.214 54.6532 163.931 54.5096C163.646 54.366 163.406 54.1736 163.21 53.9324C163.008 53.6818 162.843 53.4038 162.719 53.1068C162.587 52.7964 162.478 52.4767 162.392 52.1504L161.377 47.926C161.049 48.6081 160.575 49.3835 159.952 50.2522C159.278 51.1741 158.479 51.9958 157.578 52.6932C156.618 53.4542 155.47 54.0918 154.139 54.6087C152.807 55.1256 151.279 55.3841 149.554 55.3841C147.066 55.3841 144.806 54.9002 142.775 53.9324C140.787 52.9964 139.018 51.6467 137.585 49.9722C136.156 48.3008 135.047 46.348 134.262 44.1137C133.476 41.8823 133.082 39.5002 133.082 36.9716V15.357C133.082 14.5213 133.263 13.8895 133.624 13.4602C133.983 13.0309 134.556 12.8169 135.342 12.8169H142.906C143.847 12.8169 144.489 12.9749 144.838 13.2951C145.188 13.6138 145.363 14.2356 145.363 15.1589V36.6399C145.363 37.5876 145.577 38.4836 146.001 39.3307C146.427 40.1779 146.989 40.9246 147.688 41.5736C148.387 42.2226 149.178 42.7353 150.063 43.1086C150.946 43.4819 151.847 43.6686 152.764 43.6686C153.55 43.6686 154.363 43.4819 155.204 43.1086C156.05 42.7305 156.834 42.224 157.528 41.6066C158.238 40.9806 158.822 40.2425 159.281 39.3954C159.74 38.5482 159.968 37.6522 159.968 36.7074V15.2579C159.968 14.8846 160.039 14.5113 160.181 14.1365C160.324 13.7632 160.536 13.476 160.82 13.2778C161.103 13.1026 161.371 12.982 161.622 12.916C161.873 12.8499 162.164 12.8155 162.49 12.8155H169.891C170.829 12.8155 171.506 13.0481 171.921 13.509C172.335 13.9714 172.543 14.5874 172.543 15.357V52.2825C172.543 52.699 172.451 53.0852 172.265 53.437C172.08 53.7888 171.824 54.0645 171.496 54.2612L171.691 54.1636ZM209.712 49.6089C209.122 50.2034 208.472 50.8409 207.764 51.523C207.054 52.205 206.273 52.844 205.422 53.437C204.566 54.0338 203.643 54.5269 202.672 54.9059C201.658 55.2967 200.58 55.4925 199.494 55.4832C196.526 55.4832 193.792 54.9232 191.291 53.8003C188.853 52.7224 186.658 51.1562 184.84 49.1968C183.038 47.2497 181.631 44.9566 180.616 42.316C179.6 39.6768 179.093 36.8395 179.093 33.8025C179.093 30.7441 179.6 27.901 180.616 25.2733C181.631 22.6456 183.038 20.3568 184.84 18.4097C186.656 16.4522 188.851 14.8913 191.291 13.8235C193.792 12.7121 196.526 12.1564 199.494 12.1564C200.696 12.1564 201.793 12.333 202.786 12.6848C203.745 13.0194 204.657 13.4738 205.504 14.0374C206.323 14.5874 207.075 15.2091 207.764 15.9012C208.45 16.5947 209.1 17.2711 209.712 17.9316V2.85034C209.712 2.14675 209.925 1.55372 210.35 1.06983C210.776 0.584493 211.414 0.343262 212.267 0.343262H219.634C219.919 0.343262 220.218 0.403569 220.534 0.524185C220.851 0.646236 221.14 0.815672 221.404 1.0368C221.665 1.25649 221.877 1.5207 222.041 1.82798C222.205 2.1367 222.287 2.47701 222.287 2.85034V52.1835C222.287 53.8778 221.404 54.725 219.634 54.725H213.216C212.78 54.725 212.44 54.6676 212.201 54.5584C211.963 54.4509 211.755 54.2868 211.594 54.0803C211.412 53.8381 211.263 53.5719 211.152 53.2891C210.998 52.9166 210.834 52.5479 210.662 52.1835L209.712 49.6089ZM190.882 33.8025C190.871 35.1902 191.098 36.5693 191.553 37.8791C192 39.1426 192.639 40.2382 193.469 41.1615C194.308 42.0921 195.328 42.8389 196.465 43.3556C197.633 43.8955 198.927 44.164 200.347 44.164C201.743 44.164 203.058 43.9113 204.292 43.4058C205.491 42.9221 206.586 42.2103 207.517 41.3094C208.443 40.4072 209.193 39.3388 209.729 38.1591C210.284 36.9486 210.597 35.6505 210.662 34.2649V33.8025C210.667 32.4217 210.4 31.0536 209.875 29.7777C209.368 28.5269 208.629 27.3848 207.698 26.412C206.765 25.4403 205.653 24.6614 204.423 24.1189C203.139 23.5517 201.749 23.265 200.347 23.2774C198.927 23.2774 197.633 23.5574 196.465 24.1189C195.296 24.6789 194.299 25.4442 193.469 26.412C192.627 27.4027 191.976 28.5445 191.553 29.7777C191.103 31.0709 190.876 32.4322 190.883 33.8025H190.882ZM260.308 49.6089C259.718 50.2034 259.068 50.8409 258.358 51.523C257.649 52.205 256.868 52.844 256.017 53.437C255.161 54.0338 254.238 54.5269 253.267 54.9059C252.253 55.2967 251.175 55.4925 250.089 55.4832C247.121 55.4832 244.386 54.9232 241.887 53.8003C239.448 52.7226 237.253 51.1563 235.434 49.1968C233.635 47.2497 232.225 44.9566 231.211 42.316C230.196 39.6768 229.687 36.8395 229.687 33.8025C229.687 30.7441 230.196 27.901 231.211 25.2733C232.225 22.6456 233.633 20.3568 235.434 18.4097C237.251 16.4521 239.447 14.8911 241.887 13.8235C244.386 12.7121 247.121 12.1564 250.089 12.1564C251.29 12.1564 252.388 12.333 253.381 12.6848C254.339 13.0194 255.252 13.4738 256.098 14.0374C256.918 14.5874 257.67 15.2091 258.358 15.9012C259.047 16.5947 259.695 17.2711 260.306 17.9316V2.85034C260.306 2.14675 260.52 1.55372 260.945 1.06983C261.372 0.584493 262.009 0.343262 262.861 0.343262H270.229C270.514 0.343262 270.813 0.403569 271.129 0.524185C271.447 0.646236 271.736 0.815672 271.998 1.0368C272.259 1.25649 272.473 1.5207 272.637 1.82798C272.799 2.1367 272.882 2.47701 272.882 2.85034V52.1835C272.882 53.8778 271.998 54.725 270.229 54.725H263.81C263.374 54.725 263.035 54.6676 262.796 54.5584C262.558 54.4507 262.351 54.2866 262.19 54.0803C262.008 53.8381 261.859 53.5719 261.748 53.2891C261.593 52.9166 261.43 52.5479 261.257 52.1835L260.306 49.6089H260.308ZM241.476 33.8025C241.465 35.1902 241.692 36.5693 242.147 37.8791C242.596 39.1426 243.235 40.2382 244.064 41.1615C244.903 42.0922 245.923 42.8391 247.061 43.3556C248.229 43.8955 249.522 44.164 250.941 44.164C252.338 44.164 253.653 43.9113 254.887 43.4058C256.086 42.9222 257.181 42.2105 258.113 41.3094C259.038 40.407 259.787 39.3386 260.322 38.1591C260.879 36.9486 261.191 35.6505 261.257 34.2649V33.8025C261.262 32.4217 260.994 31.0536 260.47 29.7777C259.962 28.5269 259.224 27.3848 258.293 26.412C257.359 25.4403 256.247 24.6614 255.018 24.1189C253.733 23.5517 252.344 23.265 250.941 23.2774C249.522 23.2774 248.228 23.5574 247.061 24.1189C245.892 24.6789 244.893 25.4442 244.064 26.412C243.221 27.4027 242.571 28.5445 242.147 29.7777C241.698 31.0709 241.471 32.4322 241.478 33.8025H241.476ZM281.594 2.88336C281.594 2.17977 281.768 1.58675 282.117 1.10285C282.468 0.617518 283.068 0.376287 283.918 0.376287H291.941C292.161 0.376287 292.39 0.436595 292.63 0.55721C292.881 0.687285 293.108 0.860778 293.301 1.06983C293.509 1.28952 293.683 1.55372 293.825 1.86101C293.968 2.16972 294.039 2.51003 294.039 2.88336V52.1835C294.039 53.0192 293.804 53.651 293.333 54.0803C292.865 54.5096 292.259 54.7236 291.517 54.7236H283.918C283.068 54.7236 282.468 54.5082 282.117 54.0803C281.768 53.651 281.594 53.0177 281.594 52.1835V2.88336ZM336.742 49.708C334.843 51.4754 332.648 52.8888 330.258 53.8821C327.838 54.887 325.244 55.3975 322.627 55.3841C319.635 55.3841 316.809 54.8341 314.146 53.7328C311.542 52.6727 309.164 51.1219 307.137 49.1638C305.119 47.202 303.495 44.8655 302.357 42.283C301.177 39.6438 300.588 36.7734 300.588 33.6704C300.588 31.7348 300.822 29.8596 301.292 28.0446C301.746 26.2688 302.417 24.5566 303.29 22.9472C304.152 21.3631 305.208 19.8942 306.433 18.5749C307.655 17.2533 309.049 16.1042 310.576 15.1589C312.13 14.2013 313.804 13.4576 315.553 12.9476C317.394 12.4128 319.302 12.1463 321.218 12.1564C323.03 12.1564 324.787 12.3991 326.49 12.883C328.193 13.3669 329.794 14.0489 331.288 14.9277C332.785 15.8079 334.153 16.8647 335.398 18.0967C336.626 19.3082 337.704 20.6655 338.607 22.1388C339.503 23.6013 340.202 25.1768 340.688 26.8241C341.178 28.4854 341.424 30.1956 341.424 31.9545C341.424 33.099 341.407 34.0337 341.374 34.7603C341.342 35.4854 341.172 36.0641 340.867 36.492C340.561 36.9227 340.055 37.2185 339.344 37.3822C338.634 37.5488 337.591 37.6306 336.217 37.6306H312.639C312.857 39.0378 313.299 40.2153 313.965 41.163C314.581 42.06 315.365 42.8272 316.273 43.4216C317.147 43.9831 318.074 44.3837 319.058 44.6278C319.968 44.8601 320.902 44.9815 321.841 44.9896C322.627 44.9896 323.434 44.9063 324.263 44.7426C325.081 44.581 325.885 44.3603 326.671 44.0821C327.406 43.8247 328.118 43.5043 328.799 43.1244C329.443 42.7625 329.962 42.382 330.355 41.9872C330.704 41.7 331.005 41.486 331.256 41.3424C331.506 41.1989 331.774 41.1285 332.058 41.1285C332.343 41.1285 332.631 41.229 332.927 41.4257C333.286 41.6786 333.62 41.9657 333.925 42.283L337.396 46.2432C337.635 46.5303 337.789 46.7888 337.855 47.0185C337.92 47.2497 337.953 47.4866 337.953 47.7279C337.953 48.1687 337.832 48.5478 337.593 48.8666C337.351 49.1872 337.063 49.4707 336.74 49.708H336.742ZM320.99 22.2206C320.138 22.2206 319.314 22.3915 318.517 22.7318C317.709 23.0796 316.953 23.5407 316.273 24.1016C315.575 24.6731 314.948 25.3221 314.391 26.0487C313.859 26.7337 313.403 27.4752 313.031 28.26H329.765C329.326 27.4327 328.829 26.6385 328.276 25.8836C327.75 25.1674 327.134 24.5238 326.442 23.9695C325.734 23.4087 324.937 22.9736 324.084 22.683C323.2 22.3742 322.168 22.2206 320.99 22.2206Z" fill="white"/>
</svg>
