<svg width="63" height="63" viewBox="0 0 63 63" fill="none" xmlns="http://www.w3.org/2000/svg">
<path d="M31.5 23.9991C30.0166 23.9996 28.5666 24.44 27.3335 25.2646C26.1003 26.0891 25.1393 27.2608 24.572 28.6315C24.0047 30.0021 23.8566 31.5102 24.1463 32.9651C24.4361 34.4199 25.1507 35.7562 26.1998 36.805C27.249 37.8537 28.5855 38.5678 30.0405 38.857C31.4954 39.1462 33.0035 38.9975 34.3739 38.4297C35.7444 37.8619 36.9157 36.9005 37.7398 35.667C38.5639 34.4335 39.0037 32.9834 39.0037 31.5C39.0023 29.5106 38.2111 27.6031 36.8041 26.1967C35.3972 24.7902 33.4894 23.9998 31.5 23.9991ZM49.0373 18.2334C48.6555 17.2657 48.0789 16.3868 47.3432 15.6511C46.6076 14.9155 45.7287 14.3389 44.7609 13.957C41.8078 12.7913 34.7766 13.0528 31.5 13.0528C28.2234 13.0528 21.1992 12.7814 18.2377 13.957C17.2699 14.3389 16.391 14.9155 15.6554 15.6511C14.9197 16.3868 14.3431 17.2657 13.9613 18.2334C12.7969 21.1866 13.057 28.2248 13.057 31.4986C13.057 34.7723 12.7969 41.8022 13.9669 44.7652C14.3487 45.7329 14.9254 46.6118 15.661 47.3474C16.3966 48.0831 17.2756 48.6597 18.2433 49.0416C21.1964 50.2073 28.2277 49.9458 31.5056 49.9458C34.7836 49.9458 41.805 50.2172 44.7666 49.0416C45.7343 48.6597 46.6132 48.0831 47.3489 47.3474C48.0845 46.6118 48.6611 45.7329 49.043 44.7652C50.2172 41.812 49.9472 34.7738 49.9472 31.5C49.9472 28.2262 50.2172 21.1978 49.043 18.2348L49.0373 18.2334ZM31.5 43.0312C29.2193 43.0312 26.9899 42.355 25.0936 41.0879C23.1973 39.8208 21.7193 38.0199 20.8465 35.9128C19.9737 33.8058 19.7454 31.4872 20.1903 29.2504C20.6353 27.0135 21.7335 24.9588 23.3462 23.3462C24.9588 21.7335 27.0135 20.6353 29.2504 20.1903C31.4872 19.7454 33.8058 19.9737 35.9128 20.8465C38.0199 21.7193 39.8208 23.1973 41.0879 25.0936C42.355 26.9899 43.0312 29.2193 43.0312 31.5C43.0331 33.0148 42.7361 34.5151 42.1573 35.915C41.5784 37.3149 40.7291 38.5868 39.658 39.658C38.5868 40.7291 37.3149 41.5784 35.915 42.1573C34.5151 42.7361 33.0148 43.0331 31.5 43.0312ZM43.5066 22.1766C42.9742 22.1768 42.4536 22.0192 42.0108 21.7236C41.568 21.4281 41.2228 21.0078 41.0189 20.516C40.8149 20.0242 40.7614 19.483 40.8651 18.9608C40.9688 18.4386 41.2251 17.9588 41.6014 17.5823C41.9778 17.2057 42.4574 16.9492 42.9795 16.8453C43.5017 16.7413 44.0429 16.7945 44.5349 16.9982C45.0267 17.2019 45.4472 17.5468 45.743 17.9895C46.0388 18.4322 46.1967 18.9526 46.1967 19.485C46.1982 19.8385 46.1299 20.1889 45.9956 20.516C45.8614 20.8431 45.6639 21.1404 45.4145 21.391C45.1651 21.6416 44.8687 21.8405 44.5422 21.9763C44.2158 22.112 43.8657 22.182 43.5122 22.1822L43.5066 22.1766ZM56.25 0H6.75C4.95979 0 3.2429 0.711159 1.97703 1.97703C0.711159 3.2429 0 4.95979 0 6.75L0 56.25C0 58.0402 0.711159 59.7571 1.97703 61.023C3.2429 62.2888 4.95979 63 6.75 63H56.25C58.0402 63 59.7571 62.2888 61.023 61.023C62.2888 59.7571 63 58.0402 63 56.25V6.75C63 4.95979 62.2888 3.2429 61.023 1.97703C59.7571 0.711159 58.0402 0 56.25 0ZM53.8425 40.7812C53.6611 44.3855 52.8384 47.5791 50.2073 50.2031C47.5762 52.8272 44.3855 53.6667 40.7855 53.8383C37.0716 54.0478 25.9369 54.0478 22.223 53.8383C18.6187 53.6569 15.4364 52.8328 12.8011 50.2031C10.1658 47.5734 9.3375 44.3784 9.16594 40.7812C8.95641 37.0659 8.95641 25.9298 9.16594 22.2188C9.34734 18.6145 10.1602 15.4209 12.8011 12.7969C15.442 10.1728 18.6328 9.34313 22.223 9.17156C25.9369 8.96203 37.0716 8.96203 40.7855 9.17156C44.3897 9.35297 47.5819 10.177 50.2073 12.8067C52.8328 15.4364 53.6709 18.6314 53.8425 22.2356C54.052 25.9369 54.052 37.0631 53.8425 40.7812Z" fill="white"/>
</svg>
