<svg width="63" height="63" viewBox="0 0 63 63" fill="none" xmlns="http://www.w3.org/2000/svg">
<path d="M56.25 0H6.75C4.95979 0 3.2429 0.711159 1.97703 1.97703C0.711159 3.2429 0 4.95979 0 6.75L0 56.25C0 58.0402 0.711159 59.7571 1.97703 61.023C3.2429 62.2888 4.95979 63 6.75 63H26.0508V41.5814H17.1914V31.5H26.0508V23.8162C26.0508 15.0764 31.2539 10.2487 39.2231 10.2487C43.0397 10.2487 47.0306 10.9294 47.0306 10.9294V19.5075H42.6333C38.3006 19.5075 36.9492 22.1962 36.9492 24.9539V31.5H46.6214L45.0745 41.5814H36.9492V63H56.25C58.0402 63 59.7571 62.2888 61.023 61.023C62.2888 59.7571 63 58.0402 63 56.25V6.75C63 4.95979 62.2888 3.2429 61.023 1.97703C59.7571 0.711159 58.0402 0 56.25 0Z" fill="white"/>
</svg>
