<svg width="63" height="63" viewBox="0 0 63 63" fill="none" xmlns="http://www.w3.org/2000/svg">
<path d="M56.25 0H6.75C3.02344 0 0 3.02344 0 6.75V56.25C0 59.9766 3.02344 63 6.75 63H56.25C59.9766 63 63 59.9766 63 56.25V6.75C63 3.02344 59.9766 0 56.25 0ZM49.3734 22.3313C49.4016 22.725 49.4016 23.1328 49.4016 23.5266C49.4016 35.7188 40.1203 49.7672 23.1609 49.7672C17.9297 49.7672 13.0781 48.2484 9 45.6328C9.74531 45.7172 10.4625 45.7453 11.2219 45.7453C15.5391 45.7453 19.5047 44.2828 22.6687 41.8078C18.6187 41.7234 15.2156 39.0656 14.0484 35.4094C15.4688 35.6203 16.7484 35.6203 18.2109 35.2406C13.9922 34.3828 10.8281 30.6703 10.8281 26.1844V26.0719C12.0516 26.7609 13.4859 27.1828 14.9906 27.2391C13.7256 26.3976 12.6886 25.2561 11.9721 23.9163C11.2556 22.5766 10.8819 21.0803 10.8844 19.5609C10.8844 17.8453 11.3344 16.2703 12.1359 14.9062C16.6781 20.5031 23.4984 24.1594 31.1484 24.5531C29.8406 18.2953 34.5234 13.2188 40.1484 13.2188C42.8063 13.2188 45.1969 14.3297 46.8844 16.1297C48.9656 15.7359 50.9625 14.9625 52.7344 13.9078C52.0453 16.0453 50.5969 17.8453 48.6844 18.9844C50.5406 18.7875 52.3406 18.2672 54 17.55C52.7484 19.3922 51.1734 21.0234 49.3734 22.3313Z" fill="white"/>
</svg>
